# Blender 4.4.3
# www.blender.org
mtllib clock.mtl
o Circle
v 4.342433 1.305811 -1.772039
v 4.342433 1.651518 -1.737990
v 4.342433 1.983941 -1.637151
v 4.342433 2.290303 -1.473397
v 4.342433 2.558832 -1.253021
v 4.342433 2.779207 -0.984492
v 4.342433 2.942961 -0.678130
v 4.342433 3.043801 -0.345708
v 4.342433 3.077850 0.000000
v 4.342433 3.043801 0.345708
v 4.342433 2.942961 0.678130
v 4.342433 2.779207 0.984492
v 4.342433 2.558832 1.253021
v 4.342433 2.290303 1.473397
v 4.342433 1.983941 1.637151
v 4.342433 1.651518 1.737990
v 4.342433 1.305811 1.772039
v 4.342433 0.960103 1.737990
v 4.342433 0.627681 1.637151
v 4.342433 0.249250 1.563627
v 4.342433 -0.317239 1.308584
v 4.342433 -0.529766 1.019160
v 4.342433 -0.331340 0.678130
v 4.342433 -0.432179 0.345708
v 4.342433 -0.466228 0.000000
v 4.342433 -0.432179 -0.345708
v 4.342433 -0.331340 -0.678130
v 4.342433 -0.693461 -1.020568
v 4.342433 -0.980007 -1.216945
v 4.342433 0.321319 -1.473397
v 4.342433 0.627681 -1.637151
v 4.342433 0.960103 -1.737990
v 5.076587 1.305811 -1.772039
v 5.076587 1.651518 -1.737990
v 5.076587 1.983941 -1.637151
v 5.076587 2.290303 -1.473397
v 5.076587 2.558832 -1.253021
v 5.076587 2.779207 -0.984492
v 5.076587 2.942961 -0.678130
v 5.076587 3.043801 -0.345708
v 5.076587 3.077850 0.000000
v 5.076587 3.043801 0.345708
v 5.076587 2.942961 0.678130
v 5.076587 2.779207 0.984492
v 5.076587 2.558832 1.253021
v 5.076587 2.290303 1.473397
v 5.076587 1.983941 1.637151
v 5.076587 1.651518 1.737990
v 5.076587 1.305811 1.772039
v 5.076587 0.960103 1.737990
v 5.076587 0.627681 1.637151
v 5.076587 0.249250 1.563627
v 5.076587 -0.317239 1.308584
v 5.076587 -0.529766 1.019160
v 5.076587 -0.331340 0.678130
v 5.076587 -0.432179 0.345708
v 5.076587 -0.466228 0.000000
v 5.076587 -0.432179 -0.345708
v 5.076587 -0.331340 -0.678130
v 5.076587 -0.693460 -1.020568
v 5.076586 -0.980007 -1.216945
v 5.076587 0.321319 -1.473397
v 5.076587 0.627681 -1.637151
v 5.076587 0.960103 -1.737990
v 5.076587 1.305811 -1.637546
v 5.076587 1.625280 -1.606081
v 5.076587 1.932472 -1.512895
v 5.076587 2.215582 -1.361569
v 5.076587 2.463730 -1.157920
v 5.076587 2.667380 -0.909772
v 5.076587 2.818706 -0.626662
v 5.076587 2.911891 -0.319469
v 5.076587 2.943357 -0.000000
v 5.076587 2.911891 0.319469
v 5.076587 2.818706 0.626662
v 5.076587 2.667380 0.909772
v 5.076587 2.463730 1.157920
v 5.076587 2.215582 1.361569
v 5.076587 1.932472 1.512895
v 5.076587 1.625280 1.606081
v 5.076587 1.305811 1.637546
v 5.076587 0.986341 1.606081
v 5.076587 0.679149 1.512895
v 5.076587 0.396039 1.361569
v 5.076587 0.147891 1.157920
v 5.076587 -0.055758 0.909772
v 5.076587 -0.207084 0.626662
v 5.076587 -0.300270 0.319469
v 5.076587 -0.331735 -0.000000
v 5.076587 -0.300270 -0.319469
v 5.076587 -0.207084 -0.626662
v 5.076587 -0.055758 -0.909772
v 5.076587 0.147891 -1.157920
v 5.076587 0.396039 -1.361569
v 5.076587 0.679149 -1.512895
v 5.076587 0.986341 -1.606081
v 4.894015 1.305811 -1.637546
v 4.894015 1.625280 -1.606081
v 4.894015 1.932472 -1.512895
v 4.894015 2.215582 -1.361569
v 4.894015 2.463730 -1.157920
v 4.894015 2.667380 -0.909772
v 4.894015 2.818706 -0.626662
v 4.894015 2.911891 -0.319469
v 4.894015 2.943357 -0.000000
v 4.894015 2.911891 0.319469
v 4.894015 2.818706 0.626662
v 4.894015 2.667380 0.909772
v 4.894015 2.463730 1.157920
v 4.894015 2.215582 1.361569
v 4.894015 1.932472 1.512895
v 4.894015 1.625280 1.606081
v 4.894015 1.305811 1.637546
v 4.894015 0.986341 1.606081
v 4.894015 0.679149 1.512895
v 4.894014 0.396039 1.361569
v 4.894014 0.147891 1.157920
v 4.894014 -0.055758 0.909772
v 4.894014 -0.207084 0.626662
v 4.894014 -0.300270 0.319469
v 4.894014 -0.331735 -0.000000
v 4.894014 -0.300270 -0.319469
v 4.894014 -0.207084 -0.626662
v 4.894014 -0.055758 -0.909772
v 4.894014 0.147891 -1.157920
v 4.894014 0.396039 -1.361569
v 4.894015 0.679149 -1.512895
v 4.894015 0.986341 -1.606081
v 4.894015 1.305811 -0.000000
v 4.342433 1.305811 -0.000000
v 4.946018 1.318588 1.044381
v 4.964550 1.473126 1.449603
v 4.946018 1.519601 1.018410
v 4.983081 1.318588 1.044381
v 4.983081 1.519601 1.018410
v 4.946018 1.306273 -0.014357
v 4.946018 1.262429 -0.008693
v 4.983081 1.306273 -0.014357
v 4.983081 1.262429 -0.008693
v 4.946018 1.313412 0.001111
v 4.983081 1.302324 0.739415
v 4.983081 1.457822 0.719325
v 4.946018 1.302324 0.739415
v 4.946018 1.457822 0.719325
v 4.983081 1.282377 0.365361
v 4.946018 1.282377 0.365361
v 4.983081 1.382047 0.352484
v 4.946018 1.382047 0.352484
v 4.983081 1.419935 0.535905
v 4.946018 1.419935 0.535905
v 4.983081 1.292351 0.552388
v 4.946018 1.292351 0.552388
v 4.983081 1.272403 0.178334
v 4.946018 1.272403 0.178334
v 4.983081 1.344160 0.169063
v 4.946018 1.344160 0.169063
v 4.946018 1.856258 -0.357376
v 4.964550 1.971313 -0.628564
v 4.946018 1.726796 -0.511987
v 4.983081 1.856258 -0.357376
v 4.983081 1.726796 -0.511987
v 4.946018 1.329061 0.031957
v 4.946018 1.357298 0.065679
v 4.983081 1.329061 0.031957
v 4.983081 1.357298 0.065679
v 4.983081 1.711761 -0.234862
v 4.983081 1.611614 -0.354463
v 4.946018 1.711761 -0.234862
v 4.946018 1.611614 -0.354463
v 4.983081 1.534530 -0.084591
v 4.946018 1.534530 -0.084591
v 4.983081 1.470338 -0.161253
v 4.946018 1.470338 -0.161253
v 4.983081 1.540976 -0.257858
v 4.946018 1.540976 -0.257858
v 4.983081 1.623145 -0.159726
v 4.946018 1.623145 -0.159726
v 4.983081 1.445914 -0.009456
v 4.946018 1.445914 -0.009456
v 4.983081 1.399699 -0.064648
v 4.946018 1.399699 -0.064648
vn -0.0000 -0.8315 -0.5556
vn -0.0000 -0.9239 -0.3827
vn -0.0000 0.9808 0.1951
vn -0.0000 1.0000 -0.0000
vn -0.0000 -0.7071 -0.7071
vn -0.0000 0.9569 0.2903
vn -0.0000 -0.5556 -0.8315
vn -0.0000 0.6281 -0.7781
vn -0.0000 0.6871 -0.7266
vn -0.0000 -0.3827 -0.9239
vn -0.0000 -0.1951 0.9808
vn -0.0000 -0.0000 1.0000
vn -0.0000 0.5653 -0.8249
vn -0.0000 -0.1951 -0.9808
vn -0.0000 -0.3827 0.9239
vn -0.0000 0.3361 0.9418
vn -0.0000 0.1934 0.9811
vn -0.0000 -0.0000 -1.0000
vn -0.0000 -0.5556 0.8315
vn -0.0000 0.3827 0.9239
vn -0.0000 0.1951 -0.9808
vn -0.0000 -0.7071 0.7071
vn -0.0000 0.1951 0.9808
vn -0.0000 0.2408 -0.9706
vn -0.0000 -0.8315 0.5556
vn -0.0000 0.3026 -0.9531
vn -0.0000 -0.9239 0.3827
vn -0.0000 0.6290 -0.7774
vn -0.0000 -0.9808 0.1951
vn -0.0000 0.8060 -0.5919
vn -0.0000 -1.0000 -0.0000
vn -0.0000 0.8643 0.5029
vn -0.0000 -0.9808 -0.1951
vn -0.0000 0.9808 -0.1951
vn -0.0000 0.9569 -0.2903
vn -1.0000 -0.0000 -0.0000
vn -0.0000 0.7071 -0.7071
vn -0.0000 0.5556 -0.8315
vn -0.0000 0.8315 -0.5556
vn -0.0000 0.9239 -0.3827
vn -0.0000 0.9239 0.3827
vn -0.0000 0.8315 0.5556
vn -0.0000 0.7071 0.7071
vn -0.0000 0.5556 0.8315
vn -0.0000 0.3827 -0.9239
vn 1.0000 -0.0000 -0.0000
vn -0.9998 0.0027 0.0205
vn -0.9990 0.0056 0.0435
vn -0.0000 0.9987 -0.0503
vn -0.0000 0.9942 0.1072
vn 0.9998 0.0027 0.0205
vn 0.9990 0.0056 0.0435
vn -0.0000 -0.9787 0.2052
vn -0.0000 -0.9344 0.3563
vn -0.0000 -0.1281 -0.9918
vn -0.0000 -0.9986 0.0533
vn -0.0000 0.9793 -0.2023
vn -0.0000 -0.6425 -0.7663
vn -0.0000 -0.4304 -0.9027
vn 0.9994 0.0269 -0.0226
vn 0.9975 0.0540 -0.0452
vn 0.9996 0.0222 -0.0186
vn -0.0000 0.8026 0.5966
vn -0.0000 0.9206 0.3906
vn -0.0000 0.6467 0.7627
vn -0.0000 -0.8072 -0.5902
vt 0.000000 0.000000
vt 0.375000 0.000000
vt 0.625000 0.250000
vt 0.375000 0.250000
vt 0.625000 0.500000
vt 0.375000 0.500000
vt 0.625000 0.750000
vt 0.375000 0.750000
vt 0.625000 1.000000
vt 0.375000 1.000000
vt 0.375000 0.500000
vt 0.375000 0.750000
vt 0.125000 0.500000
vt 0.125000 0.750000
vt 0.375000 0.250000
vt 0.375000 0.500000
vt 0.375000 0.750000
s 1
f 12/1/1 11/1/2 43/1/2 44/1/1
f 26/1/3 25/1/4 57/1/4 58/1/3
f 13/1/5 12/1/1 44/1/1 45/1/5
f 27/1/6 26/1/3 58/1/3 59/1/6
f 14/1/7 13/1/5 45/1/5 46/1/7
f 28/1/8 27/1/9 59/1/9 60/1/8
f 15/1/10 14/1/7 46/1/7 47/1/10
f 2/1/11 1/1/12 33/1/12 34/1/11
f 29/1/13 28/1/8 60/1/8 61/1/13
f 16/1/14 15/1/10 47/1/10 48/1/14
f 3/1/15 2/1/11 34/1/11 35/1/15
f 30/1/16 29/1/17 61/1/17 62/1/16
f 17/1/18 16/1/14 48/1/14 49/1/18
f 4/1/19 3/1/15 35/1/15 36/1/19
f 31/1/20 30/1/16 62/1/16 63/1/20
f 18/1/21 17/1/18 49/1/18 50/1/21
f 5/1/22 4/1/19 36/1/19 37/1/22
f 32/1/23 31/1/20 63/1/20 64/1/23
f 19/1/24 18/1/21 50/1/21 51/1/24
f 6/1/25 5/1/22 37/1/22 38/1/25
f 1/1/12 32/1/23 64/1/23 33/1/12
f 20/1/26 19/1/24 51/1/24 52/1/26
f 7/1/27 6/1/25 38/1/25 39/1/27
f 21/1/28 20/1/26 52/1/26 53/1/28
f 8/1/29 7/1/27 39/1/27 40/1/29
f 22/1/30 21/1/28 53/1/28 54/1/30
f 9/1/31 8/1/29 40/1/29 41/1/31
f 23/1/32 22/1/32 54/1/32 55/1/32
f 10/1/33 9/1/31 41/1/31 42/1/33
f 24/1/34 23/1/35 55/1/35 56/1/34
f 11/1/2 10/1/33 42/1/33 43/1/2
f 25/1/4 24/1/34 56/1/34 57/1/4
f 61/1/36 60/1/36 92/1/36 93/1/36
f 48/1/36 47/1/36 79/1/36 80/1/36
f 35/1/36 34/1/36 66/1/36 67/1/36
f 62/1/36 61/1/36 93/1/36 94/1/36
f 49/1/36 48/1/36 80/1/36 81/1/36
f 36/1/36 35/1/36 67/1/36 68/1/36
f 63/1/36 62/1/36 94/1/36 95/1/36
f 50/1/36 49/1/36 81/1/36 82/1/36
f 37/1/36 36/1/36 68/1/36 69/1/36
f 64/1/36 63/1/36 95/1/36 96/1/36
f 51/1/36 50/1/36 82/1/36 83/1/36
f 38/1/36 37/1/36 69/1/36 70/1/36
f 33/1/36 64/1/36 96/1/36 65/1/36
f 52/1/36 51/1/36 83/1/36 84/1/36
f 39/1/36 38/1/36 70/1/36 71/1/36
f 53/1/36 52/1/36 84/1/36 85/1/36
f 40/1/36 39/1/36 71/1/36 72/1/36
f 54/1/36 53/1/36 85/1/36 86/1/36
f 41/1/36 40/1/36 72/1/36 73/1/36
f 55/1/36 54/1/36 86/1/36 87/1/36
f 42/1/36 41/1/36 73/1/36 74/1/36
f 56/1/36 55/1/36 87/1/36 88/1/36
f 43/1/36 42/1/36 74/1/36 75/1/36
f 57/1/36 56/1/36 88/1/36 89/1/36
f 44/1/36 43/1/36 75/1/36 76/1/36
f 58/1/36 57/1/36 89/1/36 90/1/36
f 45/1/36 44/1/36 76/1/36 77/1/36
f 59/1/36 58/1/36 90/1/36 91/1/36
f 46/1/36 45/1/36 77/1/36 78/1/36
f 60/1/36 59/1/36 91/1/36 92/1/36
f 47/1/36 46/1/36 78/1/36 79/1/36
f 34/1/36 33/1/36 65/1/36 66/1/36
f 69/1/37 68/1/38 100/1/38 101/1/37
f 96/1/14 95/1/10 127/1/10 128/1/14
f 83/1/15 82/1/11 114/1/11 115/1/15
f 70/1/39 69/1/37 101/1/37 102/1/39
f 65/1/18 96/1/14 128/1/14 97/1/18
f 84/1/19 83/1/15 115/1/15 116/1/19
f 71/1/40 70/1/39 102/1/39 103/1/40
f 85/1/22 84/1/19 116/1/19 117/1/22
f 72/1/34 71/1/40 103/1/40 104/1/34
f 86/1/25 85/1/22 117/1/22 118/1/25
f 73/1/4 72/1/34 104/1/34 105/1/4
f 87/1/27 86/1/25 118/1/25 119/1/27
f 74/1/3 73/1/4 105/1/4 106/1/3
f 88/1/29 87/1/27 119/1/27 120/1/29
f 75/1/41 74/1/3 106/1/3 107/1/41
f 89/1/31 88/1/29 120/1/29 121/1/31
f 76/1/42 75/1/41 107/1/41 108/1/42
f 90/1/33 89/1/31 121/1/31 122/1/33
f 77/1/43 76/1/42 108/1/42 109/1/43
f 91/1/2 90/1/33 122/1/33 123/1/2
f 78/1/44 77/1/43 109/1/43 110/1/44
f 92/1/1 91/1/2 123/1/2 124/1/1
f 79/1/20 78/1/44 110/1/44 111/1/20
f 66/1/21 65/1/18 97/1/18 98/1/21
f 93/1/5 92/1/1 124/1/1 125/1/5
f 80/1/23 79/1/20 111/1/20 112/1/23
f 67/1/45 66/1/21 98/1/21 99/1/45
f 94/1/7 93/1/5 125/1/5 126/1/7
f 81/1/12 80/1/23 112/1/23 113/1/12
f 68/1/38 67/1/45 99/1/45 100/1/38
f 95/1/10 94/1/7 126/1/7 127/1/10
f 82/1/11 81/1/12 113/1/12 114/1/11
f 104/1/36 103/1/36 129/1/36
f 118/1/36 117/1/36 129/1/36
f 105/1/36 104/1/36 129/1/36
f 119/1/36 118/1/36 129/1/36
f 106/1/36 105/1/36 129/1/36
f 120/1/36 119/1/36 129/1/36
f 107/1/36 106/1/36 129/1/36
f 121/1/36 120/1/36 129/1/36
f 108/1/36 107/1/36 129/1/36
f 122/1/36 121/1/36 129/1/36
f 109/1/36 108/1/36 129/1/36
f 123/1/36 122/1/36 129/1/36
f 110/1/36 109/1/36 129/1/36
f 124/1/36 123/1/36 129/1/36
f 111/1/36 110/1/36 129/1/36
f 98/1/36 97/1/36 129/1/36
f 125/1/36 124/1/36 129/1/36
f 112/1/36 111/1/36 129/1/36
f 99/1/36 98/1/36 129/1/36
f 126/1/36 125/1/36 129/1/36
f 113/1/36 112/1/36 129/1/36
f 100/1/36 99/1/36 129/1/36
f 127/1/36 126/1/36 129/1/36
f 114/1/36 113/1/36 129/1/36
f 101/1/36 100/1/36 129/1/36
f 128/1/36 127/1/36 129/1/36
f 115/1/36 114/1/36 129/1/36
f 102/1/36 101/1/36 129/1/36
f 97/1/36 128/1/36 129/1/36
f 116/1/36 115/1/36 129/1/36
f 103/1/36 102/1/36 129/1/36
f 117/1/36 116/1/36 129/1/36
f 3/1/46 4/1/46 130/1/46
f 30/1/46 31/1/46 130/1/46
f 17/1/46 18/1/46 130/1/46
f 4/1/46 5/1/46 130/1/46
f 31/1/46 32/1/46 130/1/46
f 18/1/46 19/1/46 130/1/46
f 5/1/46 6/1/46 130/1/46
f 32/1/46 1/1/46 130/1/46
f 19/1/46 20/1/46 130/1/46
f 6/1/46 7/1/46 130/1/46
f 20/1/46 21/1/46 130/1/46
f 7/1/46 8/1/46 130/1/46
f 21/1/46 22/1/46 130/1/46
f 8/1/46 9/1/46 130/1/46
f 22/1/46 23/1/46 130/1/46
f 9/1/46 10/1/46 130/1/46
f 23/1/46 24/1/46 130/1/46
f 10/1/46 11/1/46 130/1/46
f 24/1/46 25/1/46 130/1/46
f 11/1/46 12/1/46 130/1/46
f 25/1/46 26/1/46 130/1/46
f 12/1/46 13/1/46 130/1/46
f 26/1/46 27/1/46 130/1/46
f 13/1/46 14/1/46 130/1/46
f 27/1/46 28/1/46 130/1/46
f 14/1/46 15/1/46 130/1/46
f 1/1/46 2/1/46 130/1/46
f 28/1/46 29/1/46 130/1/46
f 15/1/46 16/1/46 130/1/46
f 2/1/46 3/1/46 130/1/46
f 29/1/46 30/1/46 130/1/46
f 16/1/46 17/1/46 130/1/46
f 131/2/47 132/3/48 133/4/47
f 133/4/49 132/5/50 135/6/49
f 135/6/51 132/7/52 134/8/51
f 134/8/53 132/9/54 131/10/53
f 155/11/46 153/12/46 139/8/46 138/6/46
f 136/13/55 138/6/55 139/8/55 137/14/55
f 153/12/56 154/10/56 137/10/56 139/8/56
f 156/4/57 155/11/57 138/6/57 136/4/57
f 154/2/36 156/4/36 136/4/36 137/2/36
f 131/2/47 133/4/47 144/4/36 143/2/36
f 133/4/49 135/6/49 142/6/57 144/4/57
f 134/8/53 131/10/53 143/10/56 141/8/56
f 135/6/51 134/8/51 141/8/46 142/6/46
f 152/2/36 150/15/36 148/4/36 146/2/36
f 150/15/57 149/16/57 147/6/57 148/4/57
f 151/8/56 152/10/56 146/10/56 145/17/56
f 149/16/46 151/8/46 145/17/46 147/6/46
f 142/6/46 141/8/46 151/8/46 149/16/46
f 141/8/56 143/10/56 152/10/56 151/8/56
f 144/4/57 142/6/57 149/16/57 150/15/57
f 143/2/36 144/4/36 150/15/36 152/2/36
f 146/2/36 148/4/36 156/4/36 154/2/36
f 148/4/57 147/6/57 155/11/57 156/4/57
f 145/17/56 146/10/56 154/10/56 153/12/56
f 147/6/46 145/17/46 153/12/46 155/11/46
f 159/4/58 158/5/59 161/6/58
f 161/6/60 158/7/61 160/8/62
f 160/8/63 158/9/64 157/10/63
f 180/11/46 178/12/46 165/8/46 164/6/46
f 178/12/65 179/10/65 163/10/65 165/8/65
f 181/4/66 180/11/66 164/6/66 162/4/66
f 159/4/58 161/6/58 167/6/66 169/4/66
f 160/8/63 157/10/63 168/10/65 166/8/65
f 161/6/60 160/8/62 166/8/46 167/6/46
f 175/15/66 174/16/66 172/6/66 173/4/66
f 176/8/65 177/10/65 171/10/65 170/17/65
f 174/16/46 176/8/46 170/17/46 172/6/46
f 167/6/46 166/8/46 176/8/46 174/16/46
f 166/8/65 168/10/65 177/10/65 176/8/65
f 169/4/66 167/6/66 174/16/66 175/15/66
f 173/4/66 172/6/66 180/11/66 181/4/66
f 170/17/65 171/10/65 179/10/65 178/12/65
f 172/6/46 170/17/46 178/12/46 180/11/46
